#!OML:ASF G:\JayActor3\Patient Classification 1\Patient 1\Session 5\male.ASF
:FULLY-SPECIFIED
:DEGREES
627
root -16.322 16.5454 -5.90545 687.111 -86.1936 -667.95
lowerback 26.4828 -0.238905 0.493375
upperback 6.17299 -0.709526 -0.649566
thorax -7.8242 -0.540667 -0.746079
lowerneck 0.923592 -1.29557 1.43019
upperneck -5.79773 -1.66665 1.37013
head -1.96147 -0.914234 0.221355
rclavicle 2.5842e-015 -1.17283e-014
rhumerus -30.4911 -3.48664 -87.0611
rradius 28.2268
rwrist 0.919819
rhand -20.908 -7.83873
rfingers 7.12502
rthumb 5.46314 -37.7483
lclavicle 2.5842e-015 -1.17283e-014
lhumerus -32.6629 -0.980539 86.6613
lradius 30.4687
lwrist 25.7278
lhand -19.5072 10.3119
lfingers 7.12502
lthumb 6.81555 40.1822
rfemur -50.8675 -5.05068 19.1714
rtibia 85.0564
rfoot -16.4797 -2.40187
rtoes -15.6065
lfemur -43.1322 -0.540093 -28.0271
ltibia 37.9382
lfoot -10.7532 1.12301
ltoes 2.92996
628
root -16.4735 16.5547 -5.91071 687.78 -86.0719 -668.562
lowerback 26.4227 -0.27458 0.467527
upperback 6.1962 -0.760818 -0.637894
thorax -7.76877 -0.564255 -0.702339
lowerneck 0.914532 -1.30042 1.42425
upperneck -5.75551 -1.67438 1.3527
head -1.94622 -0.916856 0.216682
rclavicle 1.33186e-014 3.16068e-014
rhumerus -30.4983 -3.42794 -87.0836
rradius 28.2035
rwrist 0.81356
rhand -20.9263 -7.86589
rfingers 7.12502
rthumb 5.44551 -37.7759
lclavicle 1.33186e-014 3.16068e-014
lhumerus -32.7044 -0.994186 86.6128
lradius 30.4067
lwrist 25.6633
lhand -19.4911 10.3263
lfingers 7.12502
lthumb 6.83112 40.1961
rfemur -52.2784 -4.99305 19.1439
rtibia 84.6759
rfoot -17.035 -2.83545
rtoes -15.6577
lfemur -42.6617 -0.55989 -28.0502
ltibia 38.0649
lfoot -11.218 1.1373
ltoes 2.63252
629
root -16.6249 16.5626 -5.91664 688.53 -85.9422 -669.28
lowerback 26.382 -0.313419 0.44636
upperback 6.22516 -0.815246 -0.622775
thorax -7.71663 -0.589706 -0.656453
lowerneck 0.898199 -1.30743 1.41776
upperneck -5.71608 -1.6852 1.33623
head -1.93058 -0.921093 0.212428
rclavicle 1.0138e-014 1.31198e-014
rhumerus -30.5071 -3.38954 -87.0903
rradius 28.1825
rwrist 0.755995
rhand -20.9473 -7.88493
rfingers 7.12502
rthumb 5.42524 -37.7955
lclavicle 1.0138e-014 1.31198e-014
lhumerus -32.7281 -0.987026 86.5581
lradius 30.3328
lwrist 25.5998
lhand -19.4512 10.3428
lfingers 7.12502
lthumb 6.8696 40.2113
rfemur -53.6133 -4.92894 19.1115
rtibia 84.1272
rfoot -17.5716 -3.28054
rtoes -15.7886
lfemur -42.1661 -0.582037 -28.0634
ltibia 38.1989
lfoot -11.6841 1.13602
ltoes 2.36999
630
root -16.7765 16.5693 -5.92339 689.292 -85.8091 -670.038
lowerback 26.3643 -0.352764 0.424317
upperback 6.25761 -0.870767 -0.603766
thorax -7.67196 -0.615945 -0.605316
lowerneck 0.879014 -1.31463 1.40637
upperneck -5.68678 -1.69622 1.32503
head -1.91765 -0.925627 0.210692
rclavicle 1.05356e-014 7.7526e-015
rhumerus -30.5208 -3.36419 -87.0822
rradius 28.1631
rwrist 0.761522
rhand -20.9656 -7.88632
rfingers 7.12502
rthumb 5.40757 -37.7973
lclavicle 1.05356e-014 7.7526e-015
lhumerus -32.7416 -0.951347 86.4965
lradius 30.2522
lwrist 25.535
lhand -19.3962 10.3672
lfingers 7.12502
lthumb 6.92266 40.234
rfemur -54.8654 -4.84752 19.07
rtibia 83.4136
rfoot -18.0935 -3.72456
rtoes -15.9193
lfemur -41.6406 -0.598065 -28.0697
ltibia 38.3349
lfoot -12.1498 1.1258
ltoes 2.14812
631
root -16.9282 16.5751 -5.93046 689.995 -85.6732 -670.76
lowerback 26.3799 -0.392298 0.408951
upperback 6.28513 -0.925183 -0.587642
thorax -7.64947 -0.6419 -0.561252
lowerneck 0.867166 -1.32354 1.39229
upperneck -5.66837 -1.7088 1.32619
head -1.90943 -0.931348 0.213435
rclavicle -1.98785e-015 1.05356e-014
rhumerus -30.5511 -3.35081 -87.0641
rradius 28.1458
rwrist 0.818796
rhand -20.9814 -7.87099
rfingers 7.12502
rthumb 5.39227 -37.7824
lclavicle -1.98785e-015 1.05356e-014
lhumerus -32.7574 -0.902429 86.4279
lradius 30.1676
lwrist 25.4699
lhand -19.3388 10.3983
lfingers 7.12502
lthumb 6.97812 40.2633
rfemur -56.0315 -4.75059 19.0109
rtibia 82.5368
rfoot -18.6066 -4.16755
rtoes -16.0341
lfemur -41.0824 -0.604021 -28.0795
ltibia 38.4665
lfoot -12.6327 1.11279
ltoes 2.04566
632
root -17.0807 16.5805 -5.93801 690.453 -85.5345 -671.255
lowerback 26.4134 -0.426484 0.381881
upperback 6.30913 -0.976483 -0.577577
thorax -7.63972 -0.666291 -0.51792
lowerneck 0.863965 -1.33275 1.38118
upperneck -5.6631 -1.72115 1.33364
head -1.90698 -0.937373 0.2178
rclavicle -2.88238e-014 -3.45885e-014
rhumerus -30.5941 -3.33965 -87.0401
rradius 28.1315
rwrist 0.904371
rhand -20.9767 -7.84587
rfingers 7.12502
rthumb 5.39689 -37.7571
lclavicle -2.88238e-014 -3.45885e-014
lhumerus -32.7801 -0.848876 86.3569
lradius 30.0916
lwrist 25.4097
lhand -19.301 10.4344
lfingers 7.12502
lthumb 7.01456 40.2981
rfemur -57.1123 -4.63425 18.9193
rtibia 81.5002
rfoot -19.1187 -4.60562
rtoes -16.1099
lfemur -40.491 -0.593959 -28.1081
ltibia 38.581
lfoot -13.1282 1.10413
ltoes 2.02998
633
root -17.2339 16.5853 -5.94604 690.719 -85.3975 -671.57
lowerback 26.4552 -0.455182 0.345952
upperback 6.33215 -1.02379 -0.573293
thorax -7.635 -0.688752 -0.47702
lowerneck 0.868797 -1.34012 1.3737
upperneck -5.67278 -1.73037 1.34806
head -1.91078 -0.942312 0.223849
rclavicle 1.05356e-014 -2.38542e-014
rhumerus -30.6403 -3.32788 -87.0139
rradius 28.11
rwrist 1.00331
rhand -20.9764 -7.81943
rfingers 7.12502
rthumb 5.39713 -37.7307
lclavicle 1.05356e-014 -2.38542e-014
lhumerus -32.8072 -0.802216 86.2865
lradius 30.0275
lwrist 25.363
lhand -19.2897 10.4769
lfingers 7.12502
lthumb 7.02549 40.3403
rfemur -58.1008 -4.50147 18.8036
rtibia 80.303
rfoot -19.6384 -5.05573
rtoes -16.169
lfemur -39.8626 -0.565319 -28.1524
ltibia 38.6635
lfoot -13.6225 1.10659
ltoes 2.06148
634
root -17.3877 16.591 -5.95374 690.828 -85.2514 -671.747
lowerback 26.5129 -0.486117 0.309867
upperback 6.35592 -1.0751 -0.577028
thorax -7.63757 -0.713268 -0.443356
lowerneck 0.881181 -1.34497 1.3683
upperneck -5.69623 -1.7357 1.36777
head -1.92037 -0.945694 0.231294
rclavicle -5.1684e-015 6.75868e-015
rhumerus -30.6858 -3.30476 -86.9887
rradius 28.08
rwrist 1.09978
rhand -20.975 -7.78858
rfingers 7.12502
rthumb 5.39844 -37.6998
lclavicle -5.1684e-015 6.75868e-015
lhumerus -32.8386 -0.759733 86.2181
lradius 29.977
lwrist 25.3164
lhand -19.2986 10.5202
lfingers 7.12502
lthumb 7.01689 40.3839
rfemur -58.9837 -4.37444 18.6531
rtibia 78.9411
rfoot -20.1644 -5.51655
rtoes -16.2203
lfemur -39.1781 -0.52931 -28.2202
ltibia 38.6949
lfoot -14.098 1.12235
ltoes 2.11519
635
root -17.5424 16.5985 -5.96144 690.828 -85.096 -671.829
lowerback 26.5721 -0.519017 0.274082
upperback 6.3829 -1.12992 -0.588991
thorax -7.63736 -0.739588 -0.417766
lowerneck 0.89472 -1.34698 1.36657
upperneck -5.72611 -1.73691 1.39131
head -1.93226 -0.947298 0.239297
rclavicle 1.33186e-014 5.56597e-015
rhumerus -30.7231 -3.27852 -86.9668
rradius 28.0316
rwrist 1.19885
rhand -20.9858 -7.75474
rfingers 7.12502
rthumb 5.38809 -37.6662
lclavicle 1.33186e-014 5.56597e-015
lhumerus -32.8673 -0.727712 86.1507
lradius 29.9377
lwrist 25.2685
lhand -19.3237 10.5445
lfingers 7.12502
lthumb 6.99265 40.409
rfemur -59.7593 -4.25587 18.4721
rtibia 77.4111
rfoot -20.6984 -5.99179
rtoes -16.2596
lfemur -38.4339 -0.486529 -28.3069
ltibia 38.6578
lfoot -14.5343 1.15099
ltoes 2.14377
636
root -17.6978 16.6083 -5.9691 690.768 -84.9275 -671.86
lowerback 26.6315 -0.555137 0.239931
upperback 6.41305 -1.18913 -0.605923
thorax -7.63386 -0.768112 -0.397152
lowerneck 0.902995 -1.34717 1.3622
upperneck -5.75286 -1.73582 1.41617
head -1.94216 -0.947687 0.248052
rclavicle -1.47101e-014 -2.5842e-015
rhumerus -30.7496 -3.25965 -86.9408
rradius 27.9641
rwrist 1.30647
rhand -21.0133 -7.71875
rfingers 7.12502
rthumb 5.36148 -37.6309
lclavicle -1.47101e-014 -2.5842e-015
lhumerus -32.8899 -0.695583 86.086
lradius 29.9068
lwrist 25.2034
lhand -19.3421 10.5716
lfingers 7.12502
lthumb 6.97497 40.4367
rfemur -60.4219 -4.15137 18.2601
rtibia 75.7073
rfoot -21.2436 -6.47212
rtoes -16.2872
lfemur -37.6266 -0.437093 -28.4134
ltibia 38.5383
lfoot -14.8944 1.20012
ltoes 2.02197
637
root -17.8538 16.6207 -5.97686 690.633 -84.7472 -671.818
lowerback 26.681 -0.593176 0.207397
upperback 6.44555 -1.25101 -0.629637
thorax -7.62294 -0.797961 -0.384209
lowerneck 0.905958 -1.34764 1.35596
upperneck -5.77501 -1.73531 1.44075
head -1.94961 -0.948245 0.256968
rclavicle 3.29983e-014 2.94201e-014
rhumerus -30.7656 -3.25252 -86.9121
rradius 27.8843
rwrist 1.41639
rhand -21.0551 -7.68942
rfingers 7.12502
rthumb 5.32114 -37.6026
lclavicle 3.29983e-014 2.94201e-014
lhumerus -32.9015 -0.667777 86.0239
lradius 29.8775
lwrist 25.1298
lhand -19.3618 10.5802
lfingers 7.12502
lthumb 6.95593 40.4459
rfemur -60.9823 -4.05787 18.0158
rtibia 73.8296
rfoot -21.7963 -6.96101
rtoes -16.3661
lfemur -36.7647 -0.381154 -28.5384
ltibia 38.3342
lfoot -15.1736 1.26535
ltoes 1.77873
638
root -18.0107 16.6357 -5.98527 690.507 -84.5656 -671.783
lowerback 26.7113 -0.629735 0.177109
upperback 6.47914 -1.31028 -0.654612
thorax -7.60125 -0.826554 -0.375069
lowerneck 0.903708 -1.34886 1.3475
upperneck -5.78688 -1.73636 1.45817
head -1.95284 -0.949194 0.263924
rclavicle -4.77083e-015 -1.59028e-015
rhumerus -30.7767 -3.26172 -86.8776
rradius 27.7986
rwrist 1.52755
rhand -21.1094 -7.66386
rfingers 7.12502
rthumb 5.26875 -37.5784
lclavicle -4.77083e-015 -1.59028e-015
lhumerus -32.9053 -0.641386 85.9648
lradius 29.8518
lwrist 25.0574
lhand -19.375 10.573
lfingers 7.12502
lthumb 6.9432 40.4391
rfemur -61.4376 -3.95864 17.7484
rtibia 71.7764
rfoot -22.3598 -7.44894
rtoes -16.4202
lfemur -35.8608 -0.305527 -28.6688
ltibia 38.0523
lfoot -15.365 1.34917
ltoes 1.36388
639
root -18.1685 16.6524 -5.99456 690.355 -84.3761 -671.717
lowerback 26.7267 -0.664013 0.141701
upperback 6.50848 -1.36751 -0.680972
thorax -7.57678 -0.853911 -0.36537
lowerneck 0.89906 -1.35232 1.33909
upperneck -5.78498 -1.74103 1.46393
head -1.95126 -0.951437 0.267176
rclavicle -4.57205e-015 -2.52457e-014
rhumerus -30.7922 -3.28797 -86.834
rradius 27.7144
rwrist 1.6278
rhand -21.1485 -7.65125
rfingers 7.12502
rthumb 5.231 -37.5667
lclavicle -4.57205e-015 -2.52457e-014
lhumerus -32.9047 -0.61026 85.9073
lradius 29.8192
lwrist 24.978
lhand -19.3829 10.5373
lfingers 7.12502
lthumb 6.93557 40.4037
rfemur -61.7901 -3.85024 17.4495
rtibia 69.5534
rfoot -22.9121 -7.92502
rtoes -16.2526
lfemur -34.9305 -0.205193 -28.8135
ltibia 37.7079
lfoot -15.4976 1.4305
ltoes 0.941748
640
root -18.3273 16.6702 -6.00483 690.215 -84.1821 -671.66
lowerback 26.7256 -0.69461 0.102443
upperback 6.53458 -1.42038 -0.706113
thorax -7.54753 -0.878971 -0.353783
lowerneck 0.894956 -1.36085 1.33251
upperneck -5.77476 -1.75296 1.45866
head -1.94718 -0.95694 0.266756
rclavicle 1.98785e-016 -3.77691e-015
rhumerus -30.8144 -3.33519 -86.7781
rradius 27.6384
rwrist 1.71465
rhand -21.1649 -7.64856
rfingers 7.12502
rthumb 5.21517 -37.5644
lclavicle 1.98785e-016 -3.77691e-015
lhumerus -32.9028 -0.581437 85.8567
lradius 29.7895
lwrist 24.9127
lhand -19.3998 10.5058
lfingers 7.12502
lthumb 6.91926 40.3727
rfemur -62.035 -3.72698 17.1216
rtibia 67.1687
rfoot -23.4516 -8.36397
rtoes -15.914
lfemur -33.9782 -0.0854784 -28.9605
ltibia 37.3149
lfoot -15.5911 1.50282
ltoes 0.541998
